# xmcd
#
# Track frame offsets:
#	150
#	17416
#	32807
#	48751
#	62465
#	78713
#	94216
#	116059
#	130969
#	151218
#	164433
#	177000
#
# Disc length: 2563 seconds
#
# Revision: 1
# Processed by: cddbd v1.5.2PL0 Copyright (c) Steve Scherf et al.
# Submitted via: audiograbber 1.83.01
#
DISCID=900a010c
DTITLE=Curley Taylor And Zydeco Trouble - Nothin Feels Like This
DYEAR=2007
DGENRE=Zydeco
TTITLE0=Fire!!!!!!
TTITLE1=Zydeco Cowboys
TTITLE2=All The Way Live
TTITLE3=Shed A Tear
TTITLE4=Nothin Feels Like This
TTITLE5=Oh Yae Yae/I'm So Tired
TTITLE6=A Man's World
TTITLE7=A Man's World-Remix
TTITLE8=Girlfriend
TTITLE9=Hallelujah, I Love Her So
TTITLE10=Nobody's Foolin' Around-Remix
TTITLE11=Zydeco Cowboys- What Cha Reppin-Remix
EXTD=
EXTT0=
EXTT1=
EXTT2=
EXTT3=
EXTT4=
EXTT5=
EXTT6=
EXTT7=
EXTT8=
EXTT9=
EXTT10=
EXTT11=
PLAYORDER=
